<svg xmlns="http://www.w3.org/2000/svg" width="256" height="256" viewBox="0 0 256 256" fill="none">
<path d="M 221.74,56.91 L 143.92,9.61 C 133.92,3.35 122.08,3.35 112.08,9.61 L 34.26,56.91 C 24.97,62.87 18.96,73.49 18.96,84.68 V 172.14 C 18.96,183.81 25.09,194.34 35.31,200.06 L 112.08,246.39 C 122.08,250.95 131.71,250.95 141.71,245.66 L 220.69,199.43 C 230.91,192.96 237.04,184.63 236.99,171.32 L 237.04,84.68 C 237.04,73.49 231.03,62.87 221.74,56.91 Z" fill="url(#paint0_linear_3311_1401)"/>
<path d="M 232.68,84.68 C 232.68,73.56 226.81,63.86 218.99,58.79 C 202.42,48.41 187.61,39.01 179.99,35.26 C 170.48,30.53 158.23,30.14 155.18,30.14 C 109.71,30.14 70.04,69.39 70.04,119.49 V 139.87 C 70.04,144.89 71.31,148.86 74.79,153.46 L 75.02,153.28 C 72.98,146.35 73.22,142.97 73.22,134.12 C 73.22,86.71 110.96,43.31 162.06,43.31 C 184.28,43.31 202.02,50.84 217.72,60.85 C 226.71,66.56 231.94,75.11 232.33,87.11 V 91.72 L 231.33,91.51 C 214.63,66.72 188.89,52.09 157.09,52.09 C 124.19,52.09 97.73,68.01 81.56,91.09 L 80.25,97.79 C 95.43,74.06 117.32,60.46 146.99,60.46 C 193.98,60.46 236.79,100.99 236.79,148.83 L 237.04,132.13 L 237.04,84.68 H 232.68 Z" fill="url(#paint1_linear_3311_1401)"/>
<path d="M 134.89,67.66 C 179.75,72.36 218.17,110.85 218.17,163.06 C 218.17,177.11 213.91,189.78 208.94,199.97 L 209.57,200.21 C 213.91,197.76 217.01,196.36 220.81,192.72 C 227.81,185.97 231.71,179.04 231.71,169.28 C 231.71,118.09 193.82,68.88 134.89,67.66 Z" fill="url(#paint2_linear_3311_1401)"/>
<path d="M 132.71,69.81 C 128.91,67.58 125.11,68.73 122.93,70.21 L 84.07,94.91 C 80.01,97.44 76.78,100.91 76.78,107.25 V 150.34 C 76.78,155.16 78.96,158.41 83.18,160.86 L 122.61,184.36 C 126.41,186.73 130.63,185.41 133.03,183.77 L 172.81,161.02 C 177.03,158.57 178.93,155.16 178.93,149.06 V 107.17 C 178.93,102.61 176.6,98.64 172.21,95.95 L 132.71,69.81 Z" fill="white"/>
<path d="M 154.85,108.36 L 132.11,94.84 C 129.34,93.27 125.48,93.28 123.09,94.84 L 102.01,107.77 C 98.71,109.57 97.27,111.86 97.27,115.66 V 169.76 L 113.82,178.72 V 119.99 L 127.43,112.46 L 141.71,120.23 V 135.18 L 151.08,129.01 C 156.23,125.62 158.55,120.15 158.55,115.26 C 158.55,112.3 157.52,109.89 154.85,108.36 Z" fill="url(#paint3_linear_3311_1401)"/>
<path d="M 132.11,94.84 C 129.34,93.27 125.48,93.28 123.09,94.84 L 102.01,107.77 C 108.89,105.81 114.72,106.21 127.43,112.46 L 141.71,120.23 V 116.01 C 141.71,107.41 137.49,97.83 132.11,94.84 Z" fill="url(#paint4_linear_3311_1401)"/>
<path d="M 154.85,108.36 C 157.52,109.89 158.55,112.3 158.55,115.26 C 158.55,120.15 155.46,126.9 149.67,131.73 L 128.11,145.16 L 114.5,135.56 V 155.32 L 123.56,161.58 C 126.49,163.06 129.15,162.66 132.23,160.62 L 153.11,147.95 C 156.91,146.15 158.55,143.86 158.55,139.81 V 115.26 C 158.55,112.3 157.52,109.89 154.85,108.36 Z" fill="url(#paint5_linear_3311_1401)"/>
<path d="M 113.82,119.51 C 103.28,125.02 97.27,134.69 97.27,147.52 V 169.76 L 113.82,178.72 V 119.51 Z" fill="url(#paint6_linear_3311_1401)"/>
<path d="M 179.91,103.25 C 186.03,113.63 189.49,126.46 189.49,139.85 C 189.49,185.41 149.24,236.11 107.22,236.11 L 107.14,237.05 L 113.82,241.53 C 123.17,246.59 134.69,245.38 143.76,239.12 C 174.61,220.02 194.69,187.96 194.69,153.8 C 194.69,135.18 189.49,115.93 179.91,103.25 Z" fill="url(#paint7_linear_3311_1401)"/>
<path d="M 128.23,10.11 C 122.02,10.11 117.01,11.91 110.17,16.46 C 74.39,34.92 57.16,67.93 57.16,104.93 C 57.16,129.46 68.18,150.98 83.22,167.06 L 82.91,167.38 C 65.29,152.11 57.32,134.31 57.32,106.21 C 57.32,70.21 76.42,35.16 109.33,17.18 C 116.95,12.63 120.51,10.83 127.82,10.83 C 134.77,10.83 141.71,14.38 148.73,18.26 L 148.97,18.02 C 142.85,14.14 137.22,10.11 128.23,10.11 Z" fill="url(#paint8_linear_3311_1401)"/>
<path d="M 24.61,85.41 C 24.61,74.06 29.31,65.77 37.82,60.26 L 46.73,54.75 L 47.01,55.23 C 39.74,66.01 36.89,76.99 36.89,93.61 C 36.89,137.91 70.68,187.05 119.21,187.77 V 188.17 C 69.21,186.13 19.21,146.35 24.61,85.41 Z" fill="url(#paint9_linear_3311_1401)"/>
<path d="M 24.45,164.14 H 23.98 V 171.23 C 23.98,182.98 30.02,191.92 38.78,196.91 C 55.72,206.91 71.71,212.34 93.93,212.34 C 136.82,212.34 174.14,177.13 176.08,158.41 L 175.53,158.25 C 161.48,179.93 140.76,202.76 100.03,203.32 C 68.65,203.72 41.21,187.09 24.45,164.14 Z" fill="url(#paint10_linear_3311_1401)"/>
<defs>
<linearGradient id="paint0_linear_3311_1401" x1="128.001" y1="5.75" x2="128.001" y2="250.25" gradientUnits="userSpaceOnUse">
<stop stop-color="#44D1F5"/>
<stop offset="1" stop-color="#4489F5"/>
</linearGradient>
<linearGradient id="paint1_linear_3311_1401" x1="70.0371" y1="30.1406" x2="237.037" y2="148.829" gradientUnits="userSpaceOnUse">
<stop stop-color="#34B1E9"/>
<stop offset="0.65625" stop-color="#D588E0"/>
<stop offset="1" stop-color="#FF88E0"/>
</linearGradient>
<linearGradient id="paint2_linear_3311_1401" x1="183.297" y1="67.6602" x2="183.297" y2="200.21" gradientUnits="userSpaceOnUse">
<stop stop-color="#FF88E0"/>
<stop offset="0.348958" stop-color="#B088E0"/>
<stop offset="1" stop-color="#3489F5"/>
</linearGradient>
<linearGradient id="paint3_linear_3311_1401" x1="107.268" y1="93.5137" x2="128.891" y2="144.301" gradientUnits="userSpaceOnUse">
<stop stop-color="#3473F5"/>
<stop offset="0.473958" stop-color="#34B1E9"/>
<stop offset="1" stop-color="#FF88E0"/>
</linearGradient>
<linearGradient id="paint4_linear_3311_1401" x1="121.851" y1="93.4492" x2="132.751" y2="120.849" gradientUnits="userSpaceOnUse">
<stop stop-color="#D588E0"/>
<stop offset="1" stop-color="#4464D4"/>
</linearGradient>
<linearGradient id="paint5_linear_3311_1401" x1="136.407" y1="108.357" x2="136.407" y2="162.74" gradientUnits="userSpaceOnUse">
<stop stop-color="#2979D8"/>
<stop offset="0.510417" stop-color="#9178D7"/>
<stop offset="1" stop-color="#34B1E9"/>
</linearGradient>
<linearGradient id="paint6_linear_3311_1401" x1="105.547" y1="116.896" x2="105.547" y2="178.72" gradientUnits="userSpaceOnUse">
<stop stop-color="#6A66D1"/>
<stop offset="0.494792" stop-color="#C577DF"/>
<stop offset="1" stop-color="#FF94DE"/>
</linearGradient>
<linearGradient id="paint7_linear_3311_1401" x1="148.366" y1="103.25" x2="148.366" y2="245.74" gradientUnits="userSpaceOnUse">
<stop stop-color="#784BA6"/>
<stop offset="0.520833" stop-color="#4490E9"/>
<stop offset="1" stop-color="#44B1E9"/>
</linearGradient>
<linearGradient id="paint8_linear_3311_1401" x1="103.061" y1="10.1094" x2="103.061" y2="167.379" gradientUnits="userSpaceOnUse">
<stop stop-color="#44D1F5"/>
<stop offset="1" stop-color="#4464D4"/>
</linearGradient>
<linearGradient id="paint9_linear_3311_1401" x1="71.6497" y1="54.75" x2="71.6497" y2="188.169" gradientUnits="userSpaceOnUse">
<stop stop-color="#44D1F5"/>
<stop offset="1" stop-color="#4464D4"/>
</linearGradient>
<linearGradient id="paint10_linear_3311_1401" x1="23.9775" y1="158.246" x2="176.077" y2="220.016" gradientUnits="userSpaceOnUse">
<stop stop-color="#FF88E0"/>
<stop offset="0.526042" stop-color="#D588E0"/>
<stop offset="1" stop-color="#784BA6"/>
</linearGradient>
</defs>
</svg>
